<svg width="248" height="80" viewBox="0 0 248 80" fill="none" xmlns="http://www.w3.org/2000/svg">
<path d="M40 76.1777C41.3998 76.1455 42.7432 75.6192 43.7924 74.692C44.8417 73.7648 45.5292 72.4964 45.7333 71.1111H34.0444C34.2544 72.534 34.974 73.8322 36.0696 74.7642C37.1651 75.6962 38.5618 76.1985 40 76.1777V76.1777Z" fill="#12AAFF"/>
<path d="M73.9999 62.5111L73.2444 61.8444C71.1009 59.9347 69.2247 57.7446 67.6666 55.3333C65.9649 52.0057 64.9449 48.3716 64.6666 44.6445V33.6667C64.6576 32.3332 64.5387 31.0028 64.3111 29.6889C60.5469 28.9152 57.1657 26.8645 54.7399 23.884C52.3142 20.9034 50.993 17.1762 50.9999 13.3333V11.9333C48.6798 10.7915 46.187 10.0407 43.6222 9.71112V6.91112C43.6222 6.12432 43.3096 5.36973 42.7532 4.81337C42.1969 4.25702 41.4423 3.94446 40.6555 3.94446C39.8687 3.94446 39.1141 4.25702 38.5577 4.81337C38.0014 5.36973 37.6888 6.12432 37.6888 6.91112V9.82223C31.946 10.6324 26.6901 13.4928 22.8915 17.8754C19.093 22.2581 17.0082 27.867 17.0222 33.6667V44.6445C16.7438 48.3716 15.7239 52.0057 14.0222 55.3333C12.4908 57.7386 10.6448 59.9283 8.53327 61.8444L7.77771 62.5111V68.7778H73.9999V62.5111Z" fill="#12AAFF"/>
<path d="M66.6665 24.4445C72.803 24.4445 77.7776 19.4698 77.7776 13.3333C77.7776 7.19684 72.803 2.22223 66.6665 2.22223C60.53 2.22223 55.5554 7.19684 55.5554 13.3333C55.5554 19.4698 60.53 24.4445 66.6665 24.4445Z" fill="#FF0303"/>
<path d="M95.84 61.5H90.32V18.54H97.04L117.92 51.96H118.16L117.92 43.68V18.54H123.44V61.5H117.68L95.84 26.46H95.6L95.84 34.74V61.5ZM129.457 46.8C129.457 42.28 130.877 38.54 133.717 35.58C136.597 32.62 140.217 31.14 144.577 31.14C148.937 31.14 152.537 32.62 155.377 35.58C158.257 38.54 159.697 42.28 159.697 46.8C159.697 51.36 158.257 55.1 155.377 58.02C152.537 60.98 148.937 62.46 144.577 62.46C140.217 62.46 136.597 60.98 133.717 58.02C130.877 55.06 129.457 51.32 129.457 46.8ZM134.977 46.8C134.977 49.96 135.897 52.52 137.737 54.48C139.577 56.44 141.857 57.42 144.577 57.42C147.297 57.42 149.577 56.44 151.417 54.48C153.257 52.52 154.177 49.96 154.177 46.8C154.177 43.68 153.257 41.14 151.417 39.18C149.537 37.18 147.257 36.18 144.577 36.18C141.897 36.18 139.617 37.18 137.737 39.18C135.897 41.14 134.977 43.68 134.977 46.8ZM175.473 61.98C173.073 61.98 171.073 61.24 169.473 59.76C167.913 58.28 167.113 56.22 167.073 53.58V37.14H161.913V32.1H167.073V23.1H172.593V32.1H179.793V37.14H172.593V51.78C172.593 53.74 172.973 55.08 173.733 55.8C174.493 56.48 175.353 56.82 176.313 56.82C176.753 56.82 177.173 56.78 177.573 56.7C178.013 56.58 178.413 56.44 178.773 56.28L180.513 61.2C179.073 61.72 177.393 61.98 175.473 61.98ZM192.477 21.96C192.477 23.04 192.097 23.96 191.337 24.72C190.577 25.48 189.657 25.86 188.577 25.86C187.497 25.86 186.577 25.48 185.817 24.72C185.057 23.96 184.677 23.04 184.677 21.96C184.677 20.88 185.057 19.96 185.817 19.2C186.577 18.44 187.497 18.06 188.577 18.06C189.657 18.06 190.577 18.44 191.337 19.2C192.097 19.96 192.477 20.88 192.477 21.96ZM191.337 32.1V61.5H185.817V32.1H191.337ZM212.08 18.06C214.08 18.06 215.72 18.4 217 19.08L215.5 23.94C214.54 23.46 213.46 23.22 212.26 23.22C210.9 23.22 209.78 23.7 208.9 24.66C208.06 25.58 207.64 26.82 207.64 28.38V32.1H215.32V37.14H207.64V61.5H202.12V37.14H196.6V32.1H202.12V27.84C202.12 24.92 203.04 22.56 204.88 20.76C206.76 18.96 209.16 18.06 212.08 18.06ZM246.89 32.1L228.47 74.46H222.77L229.61 59.64L217.49 32.1H223.49L232.25 53.22H232.37L240.89 32.1H246.89Z" fill="black"/>
</svg>
